<svg xmlns="http://www.w3.org/2000/svg" viewBox="0 0 19.14 25.77"><defs><style>.cls-1{fill:none;stroke:#03060a;stroke-linecap:round;stroke-linejoin:round;stroke-width:1.2px;}</style></defs><title>Asset 3</title><g id="Layer_2" data-name="Layer 2"><g id="Layer_1-2" data-name="Layer 1"><path class="cls-1" d="M15.73,10.77c0,.35,0,.68,0,.92a8.37,8.37,0,0,0,2.53,5.68,1,1,0,0,1-.7,1.7h-16a1,1,0,0,1-.7-1.7,8.37,8.37,0,0,0,2.53-5.68c0-.59,0-1.78,0-2.38C3.42,6.67,4.93,2.67,8,2.23a1.63,1.63,0,1,1,3.25,0"/><path class="cls-1" d="M6.91,22.51a2.67,2.67,0,0,0,5.33,0"/></g></g></svg>